<svg width="1910" height="1690" version="1.1" xmlns="http://www.w3.org/2000/svg" desc="Created with imagetracer.js version 1.2.5" ><path fill="rgb(215,212,208)" stroke="rgb(215,212,208)" stroke-width="1" opacity="1" d="M 0 0 L 160 5 Q 118.8 28.8 45 20 L 30 35 L 25 140 L 10 135 L 5 150 L 0 0 Z " /><path fill="rgb(215,212,208)" stroke="rgb(215,212,208)" stroke-width="1" opacity="1" d="M 1455 0 L 1910 0 L 1910 375 L 1910 395 L 1910 425 L 1885 470 L 1880 430 Q 1913.3 443.1 1900 395 L 1880 395 L 1890 375 L 1890 30 L 1735 10 L 1695 20 L 1655 10 L 1575 30 L 1545 20 L 1455 10 L 1455 0 Z " /><path fill="rgb(215,212,208)" stroke="rgb(215,212,208)" stroke-width="1" opacity="1" d="M 175 20 L 660 25 L 175 30 L 175 20 Z " /><path fill="rgb(215,212,208)" stroke="rgb(215,212,208)" stroke-width="1" opacity="1" d="M 735 20 L 800 25 L 735 30 L 735 20 Z " /><path fill="rgb(215,212,208)" stroke="rgb(215,212,208)" stroke-width="1" opacity="1" d="M 855 20 L 900 25 L 855 30 L 855 20 Z " /><path fill="rgb(215,212,208)" stroke="rgb(215,212,208)" stroke-width="1" opacity="1" d="M 1065 20 L 1100 25 L 1065 30 L 1065 20 Z " /><path fill="rgb(215,212,208)" stroke="rgb(215,212,208)" stroke-width="1" opacity="1" d="M 1175 20 L 1220 25 L 1175 30 L 1175 20 Z " /><path fill="rgb(215,212,208)" stroke="rgb(215,212,208)" stroke-width="1" opacity="1" d="M 35 250 L 40 345 L 30 345 L 35 250 Z " /><path fill="rgb(215,212,208)" stroke="rgb(215,212,208)" stroke-width="1" opacity="1" d="M 5 360 L 10 385 L 0 385 L 5 360 Z " /><path fill="rgb(215,212,208)" stroke="rgb(215,212,208)" stroke-width="1" opacity="1" d="M 35 360 Q 62.5 372.5 40 385 L 35 720 L 30 455 L 20 435 L 35 360 Z " /><path fill="rgb(215,212,208)" stroke="rgb(215,212,208)" stroke-width="1" opacity="1" d="M 5 450 L 10 475 L 0 475 L 5 450 Z " /><path fill="rgb(215,212,208)" stroke="rgb(215,212,208)" stroke-width="1" opacity="1" d="M 5 550 L 10 615 L 0 615 L 5 550 Z " /><path fill="rgb(215,212,208)" stroke="rgb(215,212,208)" stroke-width="1" opacity="1" d="M 1880 550 L 1900 555 L 1890 595 L 1890 615 L 1885 660 L 1880 550 Z " /><path fill="rgb(215,212,208)" stroke="rgb(215,212,208)" stroke-width="1" opacity="1" d="M 1885 670 L 1890 715 L 1880 715 L 1885 670 Z " /><path fill="rgb(215,212,208)" stroke="rgb(215,212,208)" stroke-width="1" opacity="1" d="M 35 730 L 40 785 L 30 785 L 35 730 Z " /><path fill="rgb(215,212,208)" stroke="rgb(215,212,208)" stroke-width="1" opacity="1" d="M 1885 760 L 1890 835 L 1880 835 L 1885 760 Z " /><path fill="rgb(215,212,208)" stroke="rgb(215,212,208)" stroke-width="1" opacity="1" d="M 35 810 L 40 875 L 30 875 L 35 810 Z " /><path fill="rgb(215,212,208)" stroke="rgb(215,212,208)" stroke-width="1" opacity="1" d="M 35 1150 L 40 1195 L 30 1195 L 35 1150 Z " /><path fill="rgb(215,212,208)" stroke="rgb(215,212,208)" stroke-width="1" opacity="1" d="M 5 1480 L 10 1515 L 0 1515 L 5 1480 Z " /><path fill="rgb(215,212,208)" stroke="rgb(215,212,208)" stroke-width="1" opacity="1" d="M 5 1530 L 10 1555 L 0 1555 L 5 1530 Z " /><path fill="rgb(118,144,93)" stroke="rgb(118,144,93)" stroke-width="1" opacity="1" d="M 290 30 L 905 30 L 910 50 Q 871.7 42.5 860 75 L 870 95 L 840 105 L 845 120 L 825 120 L 730 140 L 705 210 L 685 210 L 650 235 L 635 260 L 605 260 L 460 340 L 425 400 L 410 395 L 415 380 L 365 360 L 335 390 L 320 375 L 350 365 L 340 345 L 345 330 L 325 340 L 325 320 L 285 330 L 280 310 L 245 320 L 240 300 L 195 290 L 185 300 L 135 270 L 40 240 L 45 140 L 55 150 L 75 130 L 115 130 L 165 110 L 185 110 L 285 100 L 300 85 L 290 30 Z M 800 70 Q 784 119 840 100 Q 856 51 800 70 Z M 695 160 L 670 200 L 710 190 L 720 165 L 695 160 Z M 435 330 L 390 355 Q 398 378 435 370 L 460 335 L 435 330 Z " /><path fill="rgb(118,144,93)" stroke="rgb(118,144,93)" stroke-width="1" opacity="1" d="M 1105 120 L 1105 140 L 1155 130 L 1155 150 L 1200 160 L 1195 180 L 1180 175 L 1175 190 L 1165 160 L 1140 170 L 1150 205 L 1130 215 L 1140 190 Q 1113.3 178.8 1120 205 L 1110 205 Q 1117.5 182.5 1095 190 Q 1077.5 159.2 1060 175 L 1045 140 L 1025 140 L 1010 135 L 1095 130 L 1105 120 Z M 1135 150 L 1100 175 Q 1120 210 1140 165 L 1135 150 Z " /><path fill="rgb(118,144,93)" stroke="rgb(118,144,93)" stroke-width="1" opacity="1" d="M 1195 200 L 1185 220 L 1195 200 Z " /><path fill="rgb(118,144,93)" stroke="rgb(118,144,93)" stroke-width="1" opacity="1" d="M 1155 220 L 1145 240 L 1155 220 Z " /><path fill="rgb(118,144,93)" stroke="rgb(118,144,93)" stroke-width="1" opacity="1" d="M 615 280 L 605 300 L 615 280 Z " /><path fill="rgb(118,144,93)" stroke="rgb(118,144,93)" stroke-width="1" opacity="1" d="M 1465 370 L 1510 375 L 1425 390 L 1395 410 L 1405 390 L 1465 370 Z " /><path fill="rgb(118,144,93)" stroke="rgb(118,144,93)" stroke-width="1" opacity="1" d="M 455 380 L 480 385 L 455 390 L 455 380 Z " /><path fill="rgb(118,144,93)" stroke="rgb(118,144,93)" stroke-width="1" opacity="1" d="M 1525 380 Q 1582.5 372.5 1610 395 L 1585 400 Q 1572.5 377.5 1525 390 L 1525 380 Z " /><path fill="rgb(118,144,93)" stroke="rgb(118,144,93)" stroke-width="1" opacity="1" d="M 1625 400 L 1720 445 L 1655 500 L 1690 455 Q 1701.3 421.7 1675 430 L 1665 440 L 1635 410 L 1625 400 Z " /><path fill="rgb(118,144,93)" stroke="rgb(118,144,93)" stroke-width="1" opacity="1" d="M 1375 410 L 1345 450 L 1375 410 Z " /><path fill="rgb(118,144,93)" stroke="rgb(118,144,93)" stroke-width="1" opacity="1" d="M 1335 460 L 1330 475 L 1325 490 L 1320 475 L 1335 460 Z " /><path fill="rgb(118,144,93)" stroke="rgb(118,144,93)" stroke-width="1" opacity="1" d="M 1285 500 L 1310 505 L 1285 510 L 1285 500 Z " /><path fill="rgb(118,144,93)" stroke="rgb(118,144,93)" stroke-width="1" opacity="1" d="M 1635 500 L 1615 530 L 1635 500 Z " /><path fill="rgb(118,144,93)" stroke="rgb(118,144,93)" stroke-width="1" opacity="1" d="M 1595 560 L 1640 585 L 1625 580 Q 1587.5 577.5 1595 560 Z " /><path fill="rgb(118,144,93)" stroke="rgb(118,144,93)" stroke-width="1" opacity="1" d="M 1655 590 L 1720 665 L 1700 655 L 1655 590 Z " /><path fill="rgb(118,144,93)" stroke="rgb(118,144,93)" stroke-width="1" opacity="1" d="M 495 640 L 475 670 L 495 640 Z " /><path fill="rgb(118,144,93)" stroke="rgb(118,144,93)" stroke-width="1" opacity="1" d="M 655 710 L 665 730 L 655 710 Z " /><path fill="rgb(118,144,93)" stroke="rgb(118,144,93)" stroke-width="1" opacity="1" d="M 1745 720 L 1760 755 L 1730 735 L 1745 720 Z " /><path fill="rgb(118,144,93)" stroke="rgb(118,144,93)" stroke-width="1" opacity="1" d="M 615 1390 L 625 1410 L 615 1390 Z " /><path fill="rgb(124,151,99)" stroke="rgb(124,151,99)" stroke-width="1" opacity="1" d="M 885 50 L 900 55 L 870 70 L 860 110 Q 833.3 98.8 840 125 Q 852.5 152.5 865 130 L 885 120 L 905 130 L 995 110 L 1005 120 L 1095 120 L 1210 150 L 1210 185 L 1155 250 L 1080 300 Q 1093.1 333.3 1045 320 L 1020 330 L 1015 350 L 995 350 Q 961.7 338.8 970 365 L 955 360 L 920 385 Q 945 433.3 970 415 L 960 425 L 990 455 L 995 470 L 1010 465 L 1000 485 L 1020 485 L 1010 505 L 1030 535 L 960 545 L 980 555 L 925 560 L 925 540 Q 862.5 522.5 845 550 L 840 530 L 785 520 L 770 545 Q 797.5 562.5 780 625 L 740 725 L 745 740 L 715 760 L 715 770 L 730 775 L 715 780 L 635 680 L 620 675 Q 642.5 662.5 615 650 L 600 645 L 600 625 L 555 550 L 520 595 L 525 610 L 450 675 L 445 690 Q 432.5 667.5 420 695 L 415 710 L 380 675 L 390 665 L 380 595 Q 407.5 577.5 390 515 L 410 475 L 395 470 L 370 480 L 365 500 L 350 495 L 345 510 L 325 510 L 265 540 L 260 515 L 300 435 L 295 420 Q 325 427.5 310 390 L 335 390 L 330 375 L 350 345 L 310 325 L 325 320 L 360 345 L 350 365 L 365 360 L 455 330 L 475 340 L 580 275 L 575 260 L 595 270 L 595 250 L 635 260 L 675 210 L 690 205 L 670 200 L 695 160 L 725 170 L 730 140 L 825 120 L 840 105 L 800 100 Q 782.5 55 835 70 L 855 60 Q 870 85 885 50 Z M 840 70 L 840 95 L 860 85 Q 867 59 840 70 Z M 1015 130 L 1025 140 L 1045 140 L 1060 175 L 1075 170 L 1105 190 L 1100 175 L 1135 150 L 1140 170 L 1165 160 L 1175 190 L 1180 175 L 1195 180 L 1200 160 L 1095 130 L 1015 130 Z M 715 170 L 710 190 L 690 195 Q 705 225 720 195 L 715 170 Z M 1135 170 L 1120 185 L 1140 190 L 1135 170 Z M 405 370 L 415 380 L 415 400 L 440 385 Q 449 355 405 370 Z M 455 380 L 455 390 L 480 385 L 455 380 Z " /><path fill="rgb(124,151,99)" stroke="rgb(124,151,99)" stroke-width="1" opacity="1" d="M 635 230 L 625 250 L 610 245 L 635 230 Z " /><path fill="rgb(124,151,99)" stroke="rgb(124,151,99)" stroke-width="1" opacity="1" d="M 85 250 L 110 265 L 95 260 L 85 250 Z " /><path fill="rgb(124,151,99)" stroke="rgb(124,151,99)" stroke-width="1" opacity="1" d="M 215 300 L 240 305 L 215 310 L 215 300 Z " /><path fill="rgb(124,151,99)" stroke="rgb(124,151,99)" stroke-width="1" opacity="1" d="M 1465 380 L 1615 400 L 1655 430 L 1675 430 Q 1701.3 421.7 1690 455 L 1645 510 L 1635 500 L 1605 530 Q 1567.5 517.5 1580 555 L 1660 605 L 1635 660 L 1615 660 L 1555 670 L 1545 660 L 1375 660 L 1335 680 L 1335 670 L 1375 650 L 1545 650 L 1575 660 L 1600 650 Q 1611.3 623.3 1585 630 L 1565 630 L 1455 610 L 1375 610 L 1330 620 Q 1342.5 650 1305 640 L 1285 630 L 1285 650 Q 1272.5 627.5 1225 640 L 1225 650 L 1240 655 L 1225 660 L 1160 635 L 1220 620 L 1225 580 L 1235 620 L 1240 565 L 1220 565 Q 1227.5 542.5 1205 550 L 1205 570 Q 1182.5 577.5 1190 555 L 1240 525 L 1235 510 L 1255 520 L 1305 510 L 1330 485 L 1385 400 L 1405 400 L 1465 380 Z M 1635 600 L 1610 640 L 1650 625 L 1635 600 Z " /><path fill="rgb(124,151,99)" stroke="rgb(124,151,99)" stroke-width="1" opacity="1" d="M 1165 570 L 1180 595 L 1160 605 L 1170 585 L 1165 570 Z " /><path fill="rgb(124,151,99)" stroke="rgb(124,151,99)" stroke-width="1" opacity="1" d="M 1155 650 L 1165 670 L 1155 650 Z " /><path fill="rgb(124,151,99)" stroke="rgb(124,151,99)" stroke-width="1" opacity="1" d="M 1545 690 L 1570 695 L 1545 700 L 1545 690 Z " /><path fill="rgb(124,151,99)" stroke="rgb(124,151,99)" stroke-width="1" opacity="1" d="M 1595 700 L 1680 705 L 1595 710 L 1595 700 Z " /><path fill="rgb(124,151,99)" stroke="rgb(124,151,99)" stroke-width="1" opacity="1" d="M 1535 710 L 1540 735 L 1530 735 L 1535 710 Z " /><path fill="rgb(124,151,99)" stroke="rgb(124,151,99)" stroke-width="1" opacity="1" d="M 1545 760 L 1550 855 L 1540 855 L 1545 760 Z " /><path fill="rgb(124,151,99)" stroke="rgb(124,151,99)" stroke-width="1" opacity="1" d="M 1415 770 L 1420 815 L 1410 815 L 1415 770 Z " /><path fill="rgb(124,151,99)" stroke="rgb(124,151,99)" stroke-width="1" opacity="1" d="M 1465 910 L 1475 930 L 1465 910 Z " /><path fill="rgb(16,62,100)" stroke="rgb(16,62,100)" stroke-width="1" opacity="1" d="M 40 40 L 275 40 L 280 75 L 290 100 L 175 100 L 40 130 L 40 40 Z " /><path fill="rgb(16,62,100)" stroke="rgb(16,62,100)" stroke-width="1" opacity="1" d="M 910 40 L 1540 45 L 1495 110 L 1480 115 L 1480 135 L 1435 190 Q 1412.5 182.5 1420 205 L 1335 280 L 1320 275 L 1295 310 L 1140 395 Q 1132.5 417.5 1155 410 L 1240 465 Q 1217.5 477.5 1245 490 Q 1257.5 467.5 1270 495 Q 1189.3 504.3 1160 565 L 1110 690 L 1165 670 L 1265 660 L 1280 665 L 1285 650 L 1290 675 L 1275 740 L 1270 670 L 1220 670 L 1220 685 L 1240 685 L 1225 700 L 1200 685 L 1210 705 L 1195 710 L 1175 710 L 1145 700 L 1135 720 L 1130 700 L 1100 700 Q 1112.5 670 1075 680 L 1055 680 L 1020 685 L 1120 715 L 1085 730 L 945 660 L 930 685 L 950 775 L 940 775 L 920 680 L 880 680 Q 892.5 710 855 700 L 835 700 L 810 705 L 835 720 L 855 720 L 885 710 L 900 715 L 905 690 L 910 730 L 885 720 L 855 730 L 835 730 L 810 730 Q 822.5 700 785 710 L 735 780 L 740 765 Q 797.6 692.6 800 565 L 790 540 L 855 560 L 975 570 L 985 560 L 1050 560 Q 1030.4 461.3 965 400 L 940 385 Q 1103.5 343.5 1190 225 L 1230 155 L 1085 110 L 905 110 L 860 120 L 910 40 Z M 905 70 L 890 85 Q 883 111 910 100 L 905 70 Z " /><path fill="rgb(16,62,100)" stroke="rgb(16,62,100)" stroke-width="1" opacity="1" d="M 40 250 L 225 320 L 340 345 Q 262 427.2 240 550 L 385 490 L 380 505 L 370 655 L 395 730 L 530 615 L 555 560 Q 607.5 697.5 710 785 L 660 755 Q 668.7 785 625 770 L 610 765 Q 617.5 787.5 595 780 L 560 805 L 575 830 Q 538.3 810 555 790 Q 532.5 797.5 540 775 L 530 740 Q 500 727.5 510 765 L 460 910 L 440 905 L 470 845 L 425 880 L 415 870 L 385 880 L 365 880 L 320 870 L 310 830 L 290 835 L 310 865 Q 285 880 300 935 L 310 955 L 300 955 L 280 865 L 280 695 L 290 665 L 260 685 L 235 720 L 135 790 L 145 770 L 170 755 L 155 730 L 130 745 L 140 715 L 120 710 L 115 770 L 110 665 Q 139.5 524.5 220 435 L 40 350 L 40 250 Z M 635 730 L 630 745 L 625 760 L 660 745 L 635 730 Z M 560 770 L 565 790 L 590 775 L 560 770 Z M 300 800 L 335 860 L 380 855 L 320 815 Q 327 789 300 800 Z M 440 820 L 445 850 L 460 825 L 440 820 Z M 405 840 L 390 855 L 395 870 L 415 860 Q 428 883 440 855 L 405 840 Z " /><path fill="rgb(16,62,100)" stroke="rgb(16,62,100)" stroke-width="1" opacity="1" d="M 1235 710 L 1225 730 L 1235 710 Z " /><path fill="rgb(16,62,100)" stroke="rgb(16,62,100)" stroke-width="1" opacity="1" d="M 1245 730 Q 1271.3 723.3 1260 750 L 1230 745 L 1245 730 Z " /><path fill="rgb(16,62,100)" stroke="rgb(16,62,100)" stroke-width="1" opacity="1" d="M 895 780 L 930 785 L 875 800 L 875 790 L 895 780 Z " /><path fill="rgb(16,62,100)" stroke="rgb(16,62,100)" stroke-width="1" opacity="1" d="M 775 820 L 790 825 L 765 840 L 775 820 Z " /><path fill="rgb(16,62,100)" stroke="rgb(16,62,100)" stroke-width="1" opacity="1" d="M 715 850 L 730 855 L 685 880 L 695 860 L 715 850 Z " /><path fill="rgb(16,62,100)" stroke="rgb(16,62,100)" stroke-width="1" opacity="1" d="M 435 930 L 440 945 L 405 990 L 410 975 L 435 930 Z " /><path fill="rgb(16,62,100)" stroke="rgb(16,62,100)" stroke-width="1" opacity="1" d="M 315 980 L 330 1015 L 320 1015 L 315 980 Z " /><path fill="rgb(134,152,101)" stroke="rgb(134,152,101)" stroke-width="1" opacity="1" d="M 1145 250 L 1105 300 L 1145 250 Z " /><path fill="rgb(134,152,101)" stroke="rgb(134,152,101)" stroke-width="1" opacity="1" d="M 1335 280 L 1325 300 L 1335 280 Z " /><path fill="rgb(134,152,101)" stroke="rgb(134,152,101)" stroke-width="1" opacity="1" d="M 1045 320 L 1060 325 L 1025 340 L 1025 330 L 1045 320 Z " /><path fill="rgb(134,152,101)" stroke="rgb(134,152,101)" stroke-width="1" opacity="1" d="M 935 390 L 980 420 L 1040 550 L 960 545 L 1030 535 Q 993.7 441.7 935 390 Z " /><path fill="rgb(134,152,101)" stroke="rgb(134,152,101)" stroke-width="1" opacity="1" d="M 195 460 L 185 480 L 195 460 Z " /><path fill="rgb(134,152,101)" stroke="rgb(134,152,101)" stroke-width="1" opacity="1" d="M 1675 480 L 1665 500 L 1675 480 Z " /><path fill="rgb(134,152,101)" stroke="rgb(134,152,101)" stroke-width="1" opacity="1" d="M 1265 500 L 1280 505 L 1200 545 L 1220 550 L 1225 570 L 1240 565 Q 1227.5 612.5 1250 625 L 1230 615 L 1225 580 L 1220 620 L 1180 625 L 1200 635 L 1180 645 L 1215 650 L 1295 630 L 1330 640 Q 1316.9 606.7 1365 620 L 1375 610 L 1455 610 L 1565 630 L 1585 630 Q 1611.3 623.3 1600 650 L 1580 655 L 1615 660 L 1650 645 L 1645 630 L 1610 640 L 1635 600 L 1655 630 L 1675 600 L 1700 645 L 1715 680 L 1730 675 L 1725 690 L 1740 695 L 1735 710 L 1750 715 Q 1730 760 1710 725 Q 1717.5 702.5 1695 710 L 1675 720 L 1675 700 L 1585 700 L 1530 710 L 1535 740 L 1550 735 L 1540 745 L 1540 855 L 1550 865 L 1530 885 L 1540 895 L 1520 935 L 1515 990 L 1500 950 L 1470 935 Q 1497.5 917.5 1455 900 Q 1425 908.7 1440 865 L 1430 840 L 1410 835 L 1420 770 L 1380 785 Q 1402.5 797.5 1375 810 L 1360 815 L 1360 835 L 1325 880 L 1290 835 L 1280 735 L 1300 640 L 1125 670 L 1130 655 Q 1146.7 571.7 1205 530 L 1265 500 Z M 1195 550 Q 1177 577 1205 570 L 1195 550 Z M 1375 650 L 1375 660 L 1550 655 L 1375 650 Z M 1555 660 L 1555 670 L 1580 665 L 1555 660 Z M 1545 690 L 1545 700 L 1570 695 L 1545 690 Z " /><path fill="rgb(134,152,101)" stroke="rgb(134,152,101)" stroke-width="1" opacity="1" d="M 1635 510 L 1625 530 L 1635 510 Z " /><path fill="rgb(134,152,101)" stroke="rgb(134,152,101)" stroke-width="1" opacity="1" d="M 795 520 L 840 535 L 815 540 L 795 520 Z " /><path fill="rgb(134,152,101)" stroke="rgb(134,152,101)" stroke-width="1" opacity="1" d="M 385 530 L 390 585 L 380 585 L 385 530 Z " /><path fill="rgb(134,152,101)" stroke="rgb(134,152,101)" stroke-width="1" opacity="1" d="M 775 530 Q 803.1 556.9 790 625 L 745 730 L 750 715 L 780 625 L 780 555 L 775 530 Z " /><path fill="rgb(134,152,101)" stroke="rgb(134,152,101)" stroke-width="1" opacity="1" d="M 855 540 L 930 545 L 855 550 L 855 540 Z " /><path fill="rgb(134,152,101)" stroke="rgb(134,152,101)" stroke-width="1" opacity="1" d="M 1585 540 L 1595 560 Q 1567.1 566.7 1585 540 Z " /><path fill="rgb(134,152,101)" stroke="rgb(134,152,101)" stroke-width="1" opacity="1" d="M 545 560 L 540 575 L 525 600 L 530 585 L 545 560 Z " /><path fill="rgb(134,152,101)" stroke="rgb(134,152,101)" stroke-width="1" opacity="1" d="M 575 580 L 610 635 L 590 625 L 575 580 Z " /><path fill="rgb(134,152,101)" stroke="rgb(134,152,101)" stroke-width="1" opacity="1" d="M 515 610 L 455 680 L 515 610 Z " /><path fill="rgb(134,152,101)" stroke="rgb(134,152,101)" stroke-width="1" opacity="1" d="M 385 620 L 390 665 L 380 665 L 385 620 Z " /><path fill="rgb(134,152,101)" stroke="rgb(134,152,101)" stroke-width="1" opacity="1" d="M 615 650 L 625 670 L 615 650 Z " /><path fill="rgb(134,152,101)" stroke="rgb(134,152,101)" stroke-width="1" opacity="1" d="M 435 680 L 425 700 L 435 680 Z " /><path fill="rgb(134,152,101)" stroke="rgb(134,152,101)" stroke-width="1" opacity="1" d="M 635 680 L 730 765 L 715 770 L 635 680 Z " /><path fill="rgb(134,152,101)" stroke="rgb(134,152,101)" stroke-width="1" opacity="1" d="M 395 690 L 405 710 Q 377.1 716.7 395 690 Z " /><path fill="rgb(134,152,101)" stroke="rgb(134,152,101)" stroke-width="1" opacity="1" d="M 95 800 L 105 820 L 95 800 Z " /><path fill="rgb(134,152,101)" stroke="rgb(134,152,101)" stroke-width="1" opacity="1" d="M 275 810 L 280 835 L 270 835 L 275 810 Z " /><path fill="rgb(134,152,101)" stroke="rgb(134,152,101)" stroke-width="1" opacity="1" d="M 1055 950 L 1065 970 L 1055 950 Z " /><path fill="rgb(134,152,101)" stroke="rgb(134,152,101)" stroke-width="1" opacity="1" d="M 1215 1130 L 1230 1135 L 1205 1150 L 1215 1130 Z " /><path fill="rgb(134,152,101)" stroke="rgb(134,152,101)" stroke-width="1" opacity="1" d="M 495 1220 L 525 1260 L 495 1220 Z " /><path fill="rgb(134,152,101)" stroke="rgb(134,152,101)" stroke-width="1" opacity="1" d="M 1225 1390 L 1250 1395 L 1225 1400 L 1225 1390 Z " /><path fill="rgb(222,222,217)" stroke="rgb(222,222,217)" stroke-width="1" opacity="1" d="M 165 0 L 540 5 L 405 20 L 385 20 L 175 20 L 165 30 L 120 15 L 165 0 Z " /><path fill="rgb(222,222,217)" stroke="rgb(222,222,217)" stroke-width="1" opacity="1" d="M 585 0 L 650 5 L 585 10 L 585 0 Z " /><path fill="rgb(222,222,217)" stroke="rgb(222,222,217)" stroke-width="1" opacity="1" d="M 765 0 L 880 5 L 840 15 L 845 30 L 815 20 L 800 25 L 805 10 Q 755 20 765 0 Z " /><path fill="rgb(222,222,217)" stroke="rgb(222,222,217)" stroke-width="1" opacity="1" d="M 905 0 L 1445 0 L 1500 15 L 1285 20 L 1275 30 L 1235 20 L 1215 20 L 1135 20 L 1125 30 L 1095 20 L 1055 30 Q 1025 0 955 10 L 955 30 L 930 25 L 935 10 Q 895 17.5 905 0 Z " /><path fill="rgb(222,222,217)" stroke="rgb(222,222,217)" stroke-width="1" opacity="1" d="M 15 130 L 30 145 L 30 255 L 20 275 L 40 355 L 20 445 L 30 455 L 30 715 L 40 725 L 30 735 L 30 935 Q -2.2 962.8 5 1030 L 0 625 Q 25 610 10 555 Q -15 540 0 485 L 10 455 Q -12.5 442.5 0 395 L 10 365 L 0 355 L 0 155 L 15 130 Z " /><path fill="rgb(222,222,217)" stroke="rgb(222,222,217)" stroke-width="1" opacity="1" d="M 1905 380 L 1900 395 L 1910 435 L 1910 675 L 1900 675 L 1895 660 L 1880 665 L 1900 605 L 1890 565 L 1890 545 L 1890 445 L 1900 435 L 1890 395 L 1905 380 Z " /><path fill="rgb(222,222,217)" stroke="rgb(222,222,217)" stroke-width="1" opacity="1" d="M 1895 710 L 1900 725 L 1890 760 L 1910 765 L 1895 770 Q 1872.5 762.5 1880 725 L 1895 710 Z " /><path fill="rgb(222,222,217)" stroke="rgb(222,222,217)" stroke-width="1" opacity="1" d="M 1885 840 L 1890 885 L 1880 885 L 1885 840 Z " /><path fill="rgb(222,222,217)" stroke="rgb(222,222,217)" stroke-width="1" opacity="1" d="M 1885 950 L 1890 995 L 1880 995 L 1885 950 Z " /><path fill="rgb(222,222,217)" stroke="rgb(222,222,217)" stroke-width="1" opacity="1" d="M 35 1000 L 40 1025 L 30 1025 L 35 1000 Z " /><path fill="rgb(222,222,217)" stroke="rgb(222,222,217)" stroke-width="1" opacity="1" d="M 1885 1030 L 1890 1075 L 1880 1075 L 1885 1030 Z " /><path fill="rgb(222,222,217)" stroke="rgb(222,222,217)" stroke-width="1" opacity="1" d="M 20 1040 L 40 1045 L 25 1080 L 20 1040 Z " /><path fill="rgb(222,222,217)" stroke="rgb(222,222,217)" stroke-width="1" opacity="1" d="M 5 1050 L 10 1105 L 0 1105 L 5 1050 Z " /><path fill="rgb(222,222,217)" stroke="rgb(222,222,217)" stroke-width="1" opacity="1" d="M 5 1130 L 30 1225 L 20 1225 L 5 1130 Z " /><path fill="rgb(222,222,217)" stroke="rgb(222,222,217)" stroke-width="1" opacity="1" d="M 415 1140 L 405 1160 L 415 1140 Z " /><path fill="rgb(222,222,217)" stroke="rgb(222,222,217)" stroke-width="1" opacity="1" d="M 395 1180 L 385 1200 L 395 1180 Z " /><path fill="rgb(222,222,217)" stroke="rgb(222,222,217)" stroke-width="1" opacity="1" d="M 5 1200 L 10 1225 L 0 1225 L 5 1200 Z " /><path fill="rgb(222,222,217)" stroke="rgb(222,222,217)" stroke-width="1" opacity="1" d="M 5 1270 L 30 1285 L 0 1290 L 5 1270 Z " /><path fill="rgb(222,222,217)" stroke="rgb(222,222,217)" stroke-width="1" opacity="1" d="M 15 1340 L 20 1355 L 0 1365 L 15 1340 Z " /><path fill="rgb(222,222,217)" stroke="rgb(222,222,217)" stroke-width="1" opacity="1" d="M 0 1380 Q 26.7 1368.7 20 1395 L 30 1405 L 30 1615 L 30 1635 Q 52.5 1708.3 0 1690 L 0 1565 L 10 1535 L 5 1520 L 20 1525 Q -5.7 1495.7 0 1435 L 0 1415 L 0 1380 Z " /><path fill="rgb(82,100,96)" stroke="rgb(82,100,96)" stroke-width="1" opacity="1" d="M 285 30 L 290 65 L 280 65 L 285 30 Z " /><path fill="rgb(82,100,96)" stroke="rgb(82,100,96)" stroke-width="1" opacity="1" d="M 885 70 L 875 90 L 885 70 Z " /><path fill="rgb(82,100,96)" stroke="rgb(82,100,96)" stroke-width="1" opacity="1" d="M 185 100 L 220 105 L 185 110 L 185 100 Z " /><path fill="rgb(82,100,96)" stroke="rgb(82,100,96)" stroke-width="1" opacity="1" d="M 925 110 L 970 115 L 925 120 L 925 110 Z " /><path fill="rgb(82,100,96)" stroke="rgb(82,100,96)" stroke-width="1" opacity="1" d="M 1015 110 L 1070 115 L 1015 120 L 1015 110 Z " /><path fill="rgb(82,100,96)" stroke="rgb(82,100,96)" stroke-width="1" opacity="1" d="M 1405 220 L 1395 240 L 1405 220 Z " /><path fill="rgb(82,100,96)" stroke="rgb(82,100,96)" stroke-width="1" opacity="1" d="M 1165 240 L 1115 300 L 1165 240 Z " /><path fill="rgb(82,100,96)" stroke="rgb(82,100,96)" stroke-width="1" opacity="1" d="M 395 470 L 400 490 L 380 485 L 395 470 Z " /><path fill="rgb(82,100,96)" stroke="rgb(82,100,96)" stroke-width="1" opacity="1" d="M 1265 480 L 1275 500 L 1265 480 Z " /><path fill="rgb(82,100,96)" stroke="rgb(82,100,96)" stroke-width="1" opacity="1" d="M 1205 520 L 1175 560 L 1205 520 Z " /><path fill="rgb(82,100,96)" stroke="rgb(82,100,96)" stroke-width="1" opacity="1" d="M 1045 540 L 1035 560 L 1000 555 L 1045 540 Z " /><path fill="rgb(82,100,96)" stroke="rgb(82,100,96)" stroke-width="1" opacity="1" d="M 375 550 L 380 645 L 370 645 L 375 550 Z " /><path fill="rgb(82,100,96)" stroke="rgb(82,100,96)" stroke-width="1" opacity="1" d="M 515 620 L 505 640 L 515 620 Z " /><path fill="rgb(82,100,96)" stroke="rgb(82,100,96)" stroke-width="1" opacity="1" d="M 465 670 L 455 690 L 465 670 Z " /><path fill="rgb(82,100,96)" stroke="rgb(82,100,96)" stroke-width="1" opacity="1" d="M 955 670 L 965 690 L 955 670 Z " /><path fill="rgb(82,100,96)" stroke="rgb(82,100,96)" stroke-width="1" opacity="1" d="M 635 690 L 645 710 L 635 690 Z " /><path fill="rgb(82,100,96)" stroke="rgb(82,100,96)" stroke-width="1" opacity="1" d="M 275 730 L 280 775 L 270 775 L 275 730 Z " /><path fill="rgb(82,100,96)" stroke="rgb(82,100,96)" stroke-width="1" opacity="1" d="M 955 750 L 960 785 L 950 785 L 955 750 Z " /><path fill="rgb(82,100,96)" stroke="rgb(82,100,96)" stroke-width="1" opacity="1" d="M 1235 750 L 1280 755 L 1235 760 L 1235 750 Z " /><path fill="rgb(82,100,96)" stroke="rgb(82,100,96)" stroke-width="1" opacity="1" d="M 1085 760 L 1085 790 Q 1062.5 797.5 1070 775 L 1085 760 Z " /><path fill="rgb(82,100,96)" stroke="rgb(82,100,96)" stroke-width="1" opacity="1" d="M 575 840 L 585 860 L 575 840 Z " /><path fill="rgb(82,100,96)" stroke="rgb(82,100,96)" stroke-width="1" opacity="1" d="M 1125 940 L 1115 960 L 1125 940 Z " /><path fill="rgb(82,100,96)" stroke="rgb(82,100,96)" stroke-width="1" opacity="1" d="M 1245 1170 L 1255 1190 L 1245 1170 Z " /><path fill="rgb(82,100,96)" stroke="rgb(82,100,96)" stroke-width="1" opacity="1" d="M 595 1370 L 605 1390 L 595 1370 Z " /><path fill="rgb(82,100,96)" stroke="rgb(82,100,96)" stroke-width="1" opacity="1" d="M 975 1640 L 1000 1645 L 975 1650 L 975 1640 Z " /><path fill="rgb(82,100,96)" stroke="rgb(82,100,96)" stroke-width="1" opacity="1" d="M 1165 1640 L 1190 1645 L 1165 1650 L 1165 1640 Z " /><path fill="rgb(199,130,114)" stroke="rgb(199,130,114)" stroke-width="1" opacity="1" d="M 1535 370 L 1560 375 L 1535 380 L 1535 370 Z " /><path fill="rgb(199,130,114)" stroke="rgb(199,130,114)" stroke-width="1" opacity="1" d="M 1695 460 L 1685 480 L 1695 460 Z " /><path fill="rgb(199,130,114)" stroke="rgb(199,130,114)" stroke-width="1" opacity="1" d="M 945 670 L 1025 720 L 1085 730 L 1100 745 L 1070 790 L 960 790 L 960 745 L 945 670 Z " /><path fill="rgb(199,130,114)" stroke="rgb(199,130,114)" stroke-width="1" opacity="1" d="M 1605 710 L 1670 715 L 1605 720 L 1605 710 Z " /><path fill="rgb(199,130,114)" stroke="rgb(199,130,114)" stroke-width="1" opacity="1" d="M 1230 760 L 1280 760 L 1280 795 L 1290 835 L 1325 880 L 1365 830 L 1380 845 L 1430 1025 L 1430 1185 L 1400 1290 L 1340 1270 L 1360 1095 L 1270 885 L 1225 830 Q 1198.7 838.3 1210 805 L 1230 760 Z " /><path fill="rgb(199,130,114)" stroke="rgb(199,130,114)" stroke-width="1" opacity="1" d="M 1455 910 L 1465 930 L 1455 910 Z " /><path fill="rgb(199,130,114)" stroke="rgb(199,130,114)" stroke-width="1" opacity="1" d="M 505 990 L 495 1010 L 505 990 Z " /><path fill="rgb(199,130,114)" stroke="rgb(199,130,114)" stroke-width="1" opacity="1" d="M 1245 1630 L 1250 1645 L 1230 1690 L 965 1690 Q 955 1690 960 1645 L 975 1650 L 1185 1650 L 1245 1630 Z " /><path fill="rgb(233,242,235)" stroke="rgb(233,242,235)" stroke-width="1" opacity="1" d="M 1295 20 L 1340 25 L 1295 30 L 1295 20 Z " /><path fill="rgb(233,242,235)" stroke="rgb(233,242,235)" stroke-width="1" opacity="1" d="M 35 100 L 40 125 L 30 125 L 35 100 Z " /><path fill="rgb(233,242,235)" stroke="rgb(233,242,235)" stroke-width="1" opacity="1" d="M 945 790 Q 1012 813 1115 800 L 1220 830 L 1235 860 Q 1261.2 851.7 1250 885 L 1280 950 L 1300 955 L 1295 970 L 1310 975 L 1305 990 L 1320 995 L 1320 1015 L 1340 1045 Q 1315 1060 1350 1075 L 1330 1225 L 1330 1245 L 1320 1295 L 1325 1310 Q 1298.8 1303.3 1310 1330 L 1260 1330 L 1260 1345 L 1265 1380 L 1205 1380 L 1145 1320 L 1140 1370 Q 1058.4 1374.4 1030 1315 L 1000 1230 L 980 1225 L 990 1205 L 965 1180 L 885 1170 L 870 1175 Q 878.3 1148.8 845 1160 L 755 1100 L 740 1105 Q 762.5 1092.5 735 1080 L 720 1085 L 725 1070 Q 702.5 1077.5 710 1055 Q 643.7 1007.7 630 920 L 775 850 L 890 820 L 895 800 L 925 810 L 945 790 Z M 1095 810 L 1055 830 Q 1033 823 1040 845 L 1025 840 L 960 915 L 960 955 L 1005 1020 L 1040 1005 L 1030 970 L 1075 1000 L 1095 990 L 1170 905 L 1160 835 L 1095 810 Z M 1215 1120 L 1175 1150 L 1150 1195 L 1155 1210 Q 1133 1203 1140 1225 L 1140 1245 L 1120 1250 Q 1113 1288 1145 1300 L 1185 1290 L 1210 1250 L 1235 1240 Q 1258 1248 1250 1225 L 1280 1210 L 1250 1145 L 1215 1120 Z " /><path fill="rgb(233,242,235)" stroke="rgb(233,242,235)" stroke-width="1" opacity="1" d="M 435 1150 L 440 1190 L 460 1190 Q 445 1227.5 475 1220 Q 528.8 1254.1 540 1320 L 560 1325 L 560 1345 L 635 1430 L 675 1450 L 690 1445 Q 682.5 1467.5 705 1460 L 730 1465 Q 721.7 1491.3 755 1480 L 790 1490 L 790 1555 L 835 1610 L 950 1650 L 960 1690 L 425 1690 L 415 1680 L 370 1690 L 380 1645 L 360 1645 L 345 1610 L 325 1660 L 320 1625 L 320 1605 L 320 1435 L 350 1365 L 340 1345 L 370 1240 L 390 1235 L 385 1220 L 400 1215 L 395 1200 L 410 1195 L 400 1175 L 430 1165 L 435 1150 Z M 335 1560 L 330 1585 L 350 1590 Q 365 1553 335 1560 Z M 395 1600 L 390 1625 L 400 1625 L 395 1600 Z M 405 1630 L 400 1665 L 410 1665 L 405 1630 Z " /><path fill="rgb(220,204,187)" stroke="rgb(220,204,187)" stroke-width="1" opacity="1" d="M 1655 10 L 1725 20 L 1755 10 L 1765 20 L 1890 30 L 1890 375 L 1880 395 L 1890 425 L 1880 465 L 1890 505 L 1880 515 L 1880 765 L 1870 775 Q 1892.5 787.5 1880 835 L 1835 870 L 1820 865 Q 1812.5 887.5 1835 880 L 1835 890 L 1765 880 L 1755 890 L 1725 860 L 1710 855 Q 1735 840 1700 825 L 1655 760 L 1630 745 Q 1624.2 717.5 1685 730 L 1700 725 Q 1692.5 747.5 1715 740 L 1740 745 Q 1717.5 757.5 1745 770 L 1770 730 L 1750 725 L 1755 710 L 1740 705 L 1745 690 L 1730 685 L 1735 670 L 1720 665 Q 1742.5 652.5 1715 640 L 1700 635 Q 1722.5 622.5 1695 610 Q 1672.5 617.5 1680 595 L 1650 585 L 1650 570 Q 1612.5 585 1620 555 L 1600 555 L 1615 530 L 1630 535 L 1645 510 L 1655 520 L 1710 465 Q 1702.5 442.5 1725 450 L 1715 430 L 1615 380 L 1595 390 L 1505 360 L 1485 370 L 1440 360 L 1435 380 L 1410 370 L 1405 390 L 1390 385 L 1335 450 L 1310 465 L 1300 485 L 1305 500 L 1285 500 L 1240 455 L 1245 440 L 1225 430 L 1210 435 L 1215 420 L 1180 405 L 1260 355 L 1255 340 L 1275 340 L 1300 325 L 1315 300 Q 1327.5 322.5 1340 295 L 1365 260 L 1375 270 L 1490 155 L 1485 140 L 1510 125 Q 1487.5 112.5 1515 100 L 1530 95 L 1525 80 L 1550 65 L 1545 50 L 1560 45 Q 1537.5 32.5 1565 20 L 1585 30 L 1655 10 Z M 1710 810 L 1710 825 L 1760 865 L 1730 825 Q 1737 799 1710 810 Z " /><path fill="rgb(220,204,187)" stroke="rgb(220,204,187)" stroke-width="1" opacity="1" d="M 40 380 L 145 420 L 160 415 L 155 430 L 175 420 L 200 445 Q 157.5 467.5 175 490 L 160 495 L 165 510 L 140 525 L 130 555 L 135 570 Q 112.5 562.5 120 585 L 125 600 L 110 595 L 100 655 L 105 670 L 90 675 L 90 765 L 80 820 L 115 830 L 125 800 L 145 800 L 210 765 Q 182.5 747.5 225 730 L 235 740 L 260 725 L 265 880 L 275 860 L 280 875 Q 257.5 887.5 270 935 L 285 970 L 300 965 L 290 1005 L 310 1035 Q 273.5 1053.5 270 1105 Q 295.7 1134.3 290 1195 L 270 1225 L 240 1375 L 250 1440 Q 283.3 1426.9 270 1475 L 260 1515 L 275 1560 L 285 1510 L 300 1545 L 300 1635 L 310 1690 L 45 1690 L 40 1675 Q 17.5 1662.5 30 1615 L 40 1595 L 30 1545 L 40 1535 L 40 1435 L 50 1425 L 40 1395 L 50 1375 L 40 1325 Q 80 1305 40 1285 L 40 1205 L 50 1195 L 40 1185 L 40 955 L 50 925 L 40 915 L 40 835 L 60 835 L 55 800 L 45 820 L 40 755 L 40 735 L 40 380 Z M 75 870 L 70 895 L 80 895 L 75 870 Z M 55 880 L 50 915 L 60 915 L 55 880 Z M 75 920 L 70 945 L 80 945 L 75 920 Z M 255 1100 L 230 1145 L 230 1235 L 245 1300 L 260 1225 Q 285 1210 250 1195 Q 240 1145 270 1135 L 255 1100 Z M 265 1150 L 260 1195 L 270 1195 L 265 1150 Z M 65 1190 L 50 1235 Q 40 1273 70 1260 L 65 1190 Z M 235 1390 L 230 1425 L 240 1425 L 235 1390 Z M 245 1440 L 245 1480 L 250 1465 Q 272 1453 245 1440 Z M 235 1480 L 230 1495 L 250 1505 L 235 1480 Z " /><path fill="rgb(220,204,187)" stroke="rgb(220,204,187)" stroke-width="1" opacity="1" d="M 1155 390 L 1165 410 L 1155 390 Z " /><path fill="rgb(220,204,187)" stroke="rgb(220,204,187)" stroke-width="1" opacity="1" d="M 515 750 L 525 770 Q 497.1 776.7 515 750 Z " /><path fill="rgb(220,204,187)" stroke="rgb(220,204,187)" stroke-width="1" opacity="1" d="M 1555 760 L 1560 785 L 1550 785 L 1555 760 Z " /><path fill="rgb(220,204,187)" stroke="rgb(220,204,187)" stroke-width="1" opacity="1" d="M 1405 770 L 1410 795 L 1390 785 L 1405 770 Z " /><path fill="rgb(220,204,187)" stroke="rgb(220,204,187)" stroke-width="1" opacity="1" d="M 1555 800 L 1560 845 L 1550 845 L 1555 800 Z " /><path fill="rgb(220,204,187)" stroke="rgb(220,204,187)" stroke-width="1" opacity="1" d="M 1375 810 L 1395 820 L 1410 815 L 1375 840 L 1375 810 Z " /><path fill="rgb(220,204,187)" stroke="rgb(220,204,187)" stroke-width="1" opacity="1" d="M 1225 830 L 1245 860 L 1225 830 Z " /><path fill="rgb(220,204,187)" stroke="rgb(220,204,187)" stroke-width="1" opacity="1" d="M 1395 840 L 1420 845 Q 1398.8 877.5 1395 840 Z " /><path fill="rgb(220,204,187)" stroke="rgb(220,204,187)" stroke-width="1" opacity="1" d="M 1425 870 L 1415 890 L 1425 870 Z " /><path fill="rgb(220,204,187)" stroke="rgb(220,204,187)" stroke-width="1" opacity="1" d="M 1035 950 L 1025 970 L 1035 950 Z " /><path fill="rgb(220,204,187)" stroke="rgb(220,204,187)" stroke-width="1" opacity="1" d="M 1505 980 L 1515 1000 L 1505 980 Z " /><path fill="rgb(220,204,187)" stroke="rgb(220,204,187)" stroke-width="1" opacity="1" d="M 995 990 L 1005 1010 L 995 990 Z " /><path fill="rgb(220,204,187)" stroke="rgb(220,204,187)" stroke-width="1" opacity="1" d="M 485 1010 L 475 1030 L 485 1010 Z " /><path fill="rgb(220,204,187)" stroke="rgb(220,204,187)" stroke-width="1" opacity="1" d="M 1355 1090 L 1360 1115 L 1350 1115 L 1355 1090 Z " /><path fill="rgb(220,204,187)" stroke="rgb(220,204,187)" stroke-width="1" opacity="1" d="M 1345 1170 L 1350 1195 L 1340 1195 L 1345 1170 Z " /><path fill="rgb(220,204,187)" stroke="rgb(220,204,187)" stroke-width="1" opacity="1" d="M 285 1270 L 290 1305 L 280 1305 L 285 1270 Z " /><path fill="rgb(220,204,187)" stroke="rgb(220,204,187)" stroke-width="1" opacity="1" d="M 275 1320 L 280 1345 L 270 1345 L 275 1320 Z " /><path fill="rgb(220,204,187)" stroke="rgb(220,204,187)" stroke-width="1" opacity="1" d="M 1045 1340 L 1055 1360 L 1045 1340 Z " /><path fill="rgb(220,204,187)" stroke="rgb(220,204,187)" stroke-width="1" opacity="1" d="M 1165 1350 L 1155 1370 L 1165 1350 Z " /><path fill="rgb(220,204,187)" stroke="rgb(220,204,187)" stroke-width="1" opacity="1" d="M 285 1400 L 290 1425 L 280 1425 L 285 1400 Z " /><path fill="rgb(220,204,187)" stroke="rgb(220,204,187)" stroke-width="1" opacity="1" d="M 1395 1540 L 1385 1560 L 1395 1540 Z " /><path fill="rgb(230,225,221)" stroke="rgb(230,225,221)" stroke-width="1" opacity="1" d="M 655 0 L 740 5 L 655 10 L 655 0 Z " /><path fill="rgb(230,225,221)" stroke="rgb(230,225,221)" stroke-width="1" opacity="1" d="M 755 0 L 765 20 L 755 0 Z " /><path fill="rgb(230,225,221)" stroke="rgb(230,225,221)" stroke-width="1" opacity="1" d="M 885 0 L 920 15 L 905 20 L 885 20 L 840 15 L 885 0 Z " /><path fill="rgb(230,225,221)" stroke="rgb(230,225,221)" stroke-width="1" opacity="1" d="M 435 10 L 490 15 L 435 20 L 435 10 Z " /><path fill="rgb(230,225,221)" stroke="rgb(230,225,221)" stroke-width="1" opacity="1" d="M 785 10 L 810 15 L 785 20 L 785 10 Z " /><path fill="rgb(230,225,221)" stroke="rgb(230,225,221)" stroke-width="1" opacity="1" d="M 965 10 L 1020 15 L 965 20 L 965 10 Z " /><path fill="rgb(230,225,221)" stroke="rgb(230,225,221)" stroke-width="1" opacity="1" d="M 1485 20 L 1520 25 L 1485 30 L 1485 20 Z " /><path fill="rgb(230,225,221)" stroke="rgb(230,225,221)" stroke-width="1" opacity="1" d="M 1895 660 Q 1925 691.2 1910 760 Q 1880 772.5 1890 735 L 1900 715 Q 1876.5 701.5 1895 660 Z " /><path fill="rgb(230,225,221)" stroke="rgb(230,225,221)" stroke-width="1" opacity="1" d="M 255 710 L 245 730 L 255 710 Z " /><path fill="rgb(230,225,221)" stroke="rgb(230,225,221)" stroke-width="1" opacity="1" d="M 525 770 L 515 790 L 525 770 Z " /><path fill="rgb(230,225,221)" stroke="rgb(230,225,221)" stroke-width="1" opacity="1" d="M 1890 770 Q 1925 758.8 1910 835 L 1900 835 L 1890 770 Z " /><path fill="rgb(230,225,221)" stroke="rgb(230,225,221)" stroke-width="1" opacity="1" d="M 1905 870 L 1910 885 L 1900 915 L 1910 925 L 1910 1040 Q 1876.7 1053.1 1890 1005 L 1900 965 Q 1875 950 1890 895 L 1905 870 Z " /><path fill="rgb(230,225,221)" stroke="rgb(230,225,221)" stroke-width="1" opacity="1" d="M 605 890 L 630 905 L 615 910 L 605 890 Z " /><path fill="rgb(230,225,221)" stroke="rgb(230,225,221)" stroke-width="1" opacity="1" d="M 1455 920 L 1465 940 L 1455 920 Z " /><path fill="rgb(230,225,221)" stroke="rgb(230,225,221)" stroke-width="1" opacity="1" d="M 10 960 Q 43.3 948.8 30 990 Q -3.3 1001.3 10 960 Z " /><path fill="rgb(230,225,221)" stroke="rgb(230,225,221)" stroke-width="1" opacity="1" d="M 505 980 L 485 1010 L 505 980 Z " /><path fill="rgb(230,225,221)" stroke="rgb(230,225,221)" stroke-width="1" opacity="1" d="M 1435 1030 L 1440 1055 L 1430 1055 L 1435 1030 Z " /><path fill="rgb(230,225,221)" stroke="rgb(230,225,221)" stroke-width="1" opacity="1" d="M 15 1060 L 30 1095 L 10 1085 L 15 1060 Z " /><path fill="rgb(230,225,221)" stroke="rgb(230,225,221)" stroke-width="1" opacity="1" d="M 1895 1070 L 1900 1095 L 1885 1150 L 1880 1085 L 1895 1070 Z " /><path fill="rgb(230,225,221)" stroke="rgb(230,225,221)" stroke-width="1" opacity="1" d="M 15 1140 L 5 1160 L 15 1140 Z " /><path fill="rgb(230,225,221)" stroke="rgb(230,225,221)" stroke-width="1" opacity="1" d="M 1435 1150 L 1440 1175 L 1430 1175 L 1435 1150 Z " /><path fill="rgb(230,225,221)" stroke="rgb(230,225,221)" stroke-width="1" opacity="1" d="M 1905 1150 L 1910 1345 L 1900 1345 L 1905 1150 Z " /><path fill="rgb(230,225,221)" stroke="rgb(230,225,221)" stroke-width="1" opacity="1" d="M 25 1160 L 30 1185 L 5 1200 L 5 1190 Q 33.7 1197.5 25 1160 Z " /><path fill="rgb(230,225,221)" stroke="rgb(230,225,221)" stroke-width="1" opacity="1" d="M 1885 1170 L 1895 1390 L 1905 1370 L 1910 1690 L 1890 1685 L 1900 1635 L 1880 1600 Q 1916.7 1612 1900 1560 L 1880 1555 L 1880 1445 L 1890 1415 L 1880 1395 L 1885 1170 Z M 1895 1480 L 1890 1525 L 1900 1525 L 1895 1480 Z " /><path fill="rgb(230,225,221)" stroke="rgb(230,225,221)" stroke-width="1" opacity="1" d="M 5 1230 L 30 1235 L 20 1265 L 25 1280 L 0 1265 L 5 1230 Z " /><path fill="rgb(230,225,221)" stroke="rgb(230,225,221)" stroke-width="1" opacity="1" d="M 0 1290 L 20 1295 L 5 1350 L 0 1290 Z " /><path fill="rgb(230,225,221)" stroke="rgb(230,225,221)" stroke-width="1" opacity="1" d="M 1435 1310 L 1445 1330 L 1435 1310 Z " /><path fill="rgb(230,225,221)" stroke="rgb(230,225,221)" stroke-width="1" opacity="1" d="M 15 1360 L 5 1380 L 15 1360 Z " /><path fill="rgb(230,225,221)" stroke="rgb(230,225,221)" stroke-width="1" opacity="1" d="M 1415 1530 L 1385 1570 L 1415 1530 Z " /><path fill="rgb(230,225,221)" stroke="rgb(230,225,221)" stroke-width="1" opacity="1" d="M 1325 1600 L 1340 1605 L 1315 1620 L 1325 1600 Z " /><path fill="rgb(230,225,221)" stroke="rgb(230,225,221)" stroke-width="1" opacity="1" d="M 1265 1630 L 1255 1650 L 1265 1630 Z " /><path fill="rgb(230,225,221)" stroke="rgb(230,225,221)" stroke-width="1" opacity="1" d="M 1885 1660 L 1875 1680 L 1885 1660 Z " /><path fill="rgb(27,67,99)" stroke="rgb(27,67,99)" stroke-width="1" opacity="1" d="M 45 30 L 280 35 L 45 40 L 45 30 Z " /><path fill="rgb(27,67,99)" stroke="rgb(27,67,99)" stroke-width="1" opacity="1" d="M 925 30 L 1540 35 L 925 40 L 925 30 Z " /><path fill="rgb(27,67,99)" stroke="rgb(27,67,99)" stroke-width="1" opacity="1" d="M 905 50 L 910 75 Q 920 112.5 890 100 L 900 75 Q 877.5 62.5 905 50 Z " /><path fill="rgb(27,67,99)" stroke="rgb(27,67,99)" stroke-width="1" opacity="1" d="M 1505 100 L 1495 120 L 1480 115 L 1505 100 Z " /><path fill="rgb(27,67,99)" stroke="rgb(27,67,99)" stroke-width="1" opacity="1" d="M 1420 190 L 1440 195 L 1410 215 L 1420 190 Z " /><path fill="rgb(27,67,99)" stroke="rgb(27,67,99)" stroke-width="1" opacity="1" d="M 1185 220 L 1175 240 L 1185 220 Z " /><path fill="rgb(27,67,99)" stroke="rgb(27,67,99)" stroke-width="1" opacity="1" d="M 1365 250 L 1345 280 L 1365 250 Z " /><path fill="rgb(27,67,99)" stroke="rgb(27,67,99)" stroke-width="1" opacity="1" d="M 1325 270 L 1330 285 L 1300 305 L 1325 270 Z " /><path fill="rgb(27,67,99)" stroke="rgb(27,67,99)" stroke-width="1" opacity="1" d="M 1285 310 L 1275 330 L 1285 310 Z " /><path fill="rgb(27,67,99)" stroke="rgb(27,67,99)" stroke-width="1" opacity="1" d="M 335 350 L 325 370 L 335 350 Z " /><path fill="rgb(27,67,99)" stroke="rgb(27,67,99)" stroke-width="1" opacity="1" d="M 965 400 L 975 420 L 965 400 Z " /><path fill="rgb(27,67,99)" stroke="rgb(27,67,99)" stroke-width="1" opacity="1" d="M 1185 420 L 1220 445 L 1205 450 L 1185 420 Z " /><path fill="rgb(27,67,99)" stroke="rgb(27,67,99)" stroke-width="1" opacity="1" d="M 1245 460 Q 1275 475 1245 490 Q 1215 475 1245 460 Z " /><path fill="rgb(27,67,99)" stroke="rgb(27,67,99)" stroke-width="1" opacity="1" d="M 195 470 L 185 490 L 195 470 Z " /><path fill="rgb(27,67,99)" stroke="rgb(27,67,99)" stroke-width="1" opacity="1" d="M 375 490 L 385 510 L 375 490 Z " /><path fill="rgb(27,67,99)" stroke="rgb(27,67,99)" stroke-width="1" opacity="1" d="M 795 560 L 800 585 L 790 585 L 795 560 Z " /><path fill="rgb(27,67,99)" stroke="rgb(27,67,99)" stroke-width="1" opacity="1" d="M 925 560 L 980 565 L 925 570 L 925 560 Z " /><path fill="rgb(27,67,99)" stroke="rgb(27,67,99)" stroke-width="1" opacity="1" d="M 955 650 L 940 675 L 935 690 L 930 675 L 955 650 Z " /><path fill="rgb(27,67,99)" stroke="rgb(27,67,99)" stroke-width="1" opacity="1" d="M 1275 650 L 1280 665 Q 1255 680 1270 735 L 1275 750 L 1245 730 L 1230 735 L 1200 685 L 1220 685 Q 1227.5 662.5 1205 670 L 1205 660 L 1270 670 L 1275 650 Z " /><path fill="rgb(27,67,99)" stroke="rgb(27,67,99)" stroke-width="1" opacity="1" d="M 965 670 L 1000 695 L 985 690 L 965 670 Z " /><path fill="rgb(27,67,99)" stroke="rgb(27,67,99)" stroke-width="1" opacity="1" d="M 880 680 L 920 680 L 920 695 L 935 740 L 945 720 L 950 735 L 940 775 L 945 790 L 895 780 L 895 800 L 875 790 L 845 810 L 830 805 L 825 820 L 785 820 L 770 825 L 775 840 L 755 840 L 680 875 L 675 890 L 660 885 L 655 900 L 630 895 Q 638.3 868.8 605 880 L 590 840 L 560 825 Q 582.5 812.5 555 800 L 540 795 L 560 790 Q 547.5 760 585 770 L 600 765 L 595 780 Q 617.5 787.5 610 765 L 635 730 L 665 750 L 675 740 L 715 780 L 740 775 L 735 760 L 750 765 L 785 710 L 810 705 L 790 695 L 805 690 L 835 700 L 855 700 Q 892.5 710 880 680 Z M 905 690 L 890 725 L 910 730 L 905 690 Z M 815 710 L 810 730 L 840 725 L 815 710 Z M 855 720 L 855 730 L 880 725 L 855 720 Z M 655 750 L 620 765 L 660 770 L 655 750 Z " /><path fill="rgb(27,67,99)" stroke="rgb(27,67,99)" stroke-width="1" opacity="1" d="M 1025 680 L 1065 690 L 1100 680 L 1100 700 Q 1137.5 685 1130 715 L 1110 725 L 1115 710 Q 1039.1 712.9 1025 680 Z " /><path fill="rgb(27,67,99)" stroke="rgb(27,67,99)" stroke-width="1" opacity="1" d="M 120 710 L 170 745 L 175 760 L 190 755 L 155 770 L 140 775 L 145 790 L 130 785 Q 137.5 807.5 115 800 L 90 815 L 100 805 L 105 720 L 115 770 L 120 710 Z M 135 720 L 135 750 Q 165 735 135 720 Z " /><path fill="rgb(27,67,99)" stroke="rgb(27,67,99)" stroke-width="1" opacity="1" d="M 205 720 L 230 725 Q 208.8 757.5 205 720 Z " /><path fill="rgb(27,67,99)" stroke="rgb(27,67,99)" stroke-width="1" opacity="1" d="M 300 800 Q 326.7 788.8 320 815 L 375 850 L 405 840 L 435 850 L 440 820 L 465 810 L 490 845 L 480 845 L 465 820 L 450 845 L 470 845 L 460 885 L 465 900 Q 452.5 877.5 440 905 L 450 930 Q 423.3 918.8 430 945 L 425 970 L 410 965 L 420 985 L 380 1035 L 385 1050 L 370 1055 L 370 1075 Q 376.7 1101.3 350 1090 L 340 1065 Q 365 1050 330 1035 L 320 980 Q 293.3 991.3 300 965 L 310 945 L 295 870 L 285 900 L 280 875 L 300 845 L 295 830 L 310 825 L 300 800 Z M 325 850 L 320 870 L 365 880 L 385 880 L 400 875 L 390 855 L 375 860 L 325 850 Z " /><path fill="rgb(17,18,37)" stroke="rgb(17,18,37)" stroke-width="1" opacity="1" d="M 1185 700 L 1220 710 L 1230 765 L 1205 820 L 1080 775 L 1125 720 L 1185 700 Z " /><path fill="rgb(17,18,37)" stroke="rgb(17,18,37)" stroke-width="1" opacity="1" d="M 1075 830 Q 1135 815 1150 845 L 1160 875 Q 1149.5 954.5 1085 980 Q 1062.5 987.5 1070 965 L 1035 950 Q 1012.5 957.5 1020 995 L 1025 1010 L 990 985 L 980 915 L 1035 850 L 1075 830 Z " /><path fill="rgb(17,18,37)" stroke="rgb(17,18,37)" stroke-width="1" opacity="1" d="M 595 940 Q 628.3 928.8 620 955 L 710 1090 L 825 1170 L 965 1200 L 980 1215 Q 994.5 1320.5 1065 1370 Q 1104.3 1398.6 1170 1390 L 1160 1365 L 1195 1390 L 1255 1400 L 1290 1375 L 1270 1345 L 1285 1350 Q 1328.8 1365 1320 1335 L 1345 1270 Q 1409.6 1285.4 1440 1335 Q 1466.7 1358.3 1460 1415 Q 1439.3 1519.3 1365 1570 Q 1306.5 1621.5 1215 1640 L 1005 1650 L 865 1610 L 820 1575 Q 794.3 1545.7 800 1485 L 785 1470 Q 644.6 1450.4 580 1355 Q 537 1238 450 1165 L 430 1095 L 525 980 L 595 940 Z " /><path fill="rgb(17,18,37)" stroke="rgb(17,18,37)" stroke-width="1" opacity="1" d="M 1215 1140 Q 1237.5 1132.5 1230 1155 L 1270 1205 L 1200 1240 L 1175 1280 Q 1122.5 1297.5 1140 1245 L 1185 1160 L 1215 1140 Z M 1215 1170 L 1200 1195 Q 1215 1225 1230 1195 L 1215 1170 Z " /><path fill="rgb(246,253,247)" stroke="rgb(246,253,247)" stroke-width="1" opacity="1" d="M 985 790 L 1100 795 L 985 800 L 985 790 Z " /><path fill="rgb(246,253,247)" stroke="rgb(246,253,247)" stroke-width="1" opacity="1" d="M 905 800 L 930 805 L 905 810 L 905 800 Z " /><path fill="rgb(246,253,247)" stroke="rgb(246,253,247)" stroke-width="1" opacity="1" d="M 1125 800 L 1150 805 L 1125 810 L 1125 800 Z " /><path fill="rgb(246,253,247)" stroke="rgb(246,253,247)" stroke-width="1" opacity="1" d="M 865 810 L 890 815 L 785 850 L 785 840 L 865 810 Z " /><path fill="rgb(246,253,247)" stroke="rgb(246,253,247)" stroke-width="1" opacity="1" d="M 1165 810 L 1200 825 L 1185 820 Q 1155 825 1165 810 Z " /><path fill="rgb(246,253,247)" stroke="rgb(246,253,247)" stroke-width="1" opacity="1" d="M 1125 820 L 1160 835 L 1145 830 Q 1115 835 1125 820 Z " /><path fill="rgb(246,253,247)" stroke="rgb(246,253,247)" stroke-width="1" opacity="1" d="M 1025 840 L 980 895 L 970 955 L 1005 1010 L 1020 1015 L 1005 1020 L 960 955 L 960 915 L 1025 840 Z " /><path fill="rgb(246,253,247)" stroke="rgb(246,253,247)" stroke-width="1" opacity="1" d="M 1225 840 L 1235 860 L 1225 840 Z " /><path fill="rgb(246,253,247)" stroke="rgb(246,253,247)" stroke-width="1" opacity="1" d="M 755 850 L 770 855 L 665 910 L 675 890 L 755 850 Z " /><path fill="rgb(246,253,247)" stroke="rgb(246,253,247)" stroke-width="1" opacity="1" d="M 1165 850 L 1170 905 L 1095 990 L 1075 1000 L 1085 980 L 1150 925 L 1165 850 Z " /><path fill="rgb(246,253,247)" stroke="rgb(246,253,247)" stroke-width="1" opacity="1" d="M 1255 880 L 1290 945 L 1280 945 L 1255 880 Z " /><path fill="rgb(246,253,247)" stroke="rgb(246,253,247)" stroke-width="1" opacity="1" d="M 625 930 L 650 975 L 630 965 L 625 930 Z " /><path fill="rgb(246,253,247)" stroke="rgb(246,253,247)" stroke-width="1" opacity="1" d="M 1035 960 Q 1068.3 948.7 1060 975 L 1045 970 Q 1022.5 962.5 1030 985 L 1040 1005 L 1030 1005 L 1020 975 L 1035 960 Z " /><path fill="rgb(246,253,247)" stroke="rgb(246,253,247)" stroke-width="1" opacity="1" d="M 655 990 L 710 1070 L 785 1130 L 870 1165 L 845 1170 L 730 1100 Q 741.3 1073.3 715 1080 L 660 1015 L 655 990 Z " /><path fill="rgb(246,253,247)" stroke="rgb(246,253,247)" stroke-width="1" opacity="1" d="M 1215 1120 L 1250 1145 L 1280 1205 L 1270 1205 L 1225 1130 L 1165 1170 L 1175 1150 L 1215 1120 Z " /><path fill="rgb(246,253,247)" stroke="rgb(246,253,247)" stroke-width="1" opacity="1" d="M 445 1160 L 460 1185 L 440 1175 L 445 1160 Z " /><path fill="rgb(246,253,247)" stroke="rgb(246,253,247)" stroke-width="1" opacity="1" d="M 885 1170 L 910 1175 L 885 1180 L 885 1170 Z " /><path fill="rgb(246,253,247)" stroke="rgb(246,253,247)" stroke-width="1" opacity="1" d="M 925 1180 L 970 1185 L 925 1190 L 925 1180 Z " /><path fill="rgb(246,253,247)" stroke="rgb(246,253,247)" stroke-width="1" opacity="1" d="M 465 1200 Q 523.8 1226.2 540 1295 L 530 1295 L 465 1200 Z " /><path fill="rgb(246,253,247)" stroke="rgb(246,253,247)" stroke-width="1" opacity="1" d="M 1335 1200 L 1340 1225 L 1330 1225 L 1335 1200 Z " /><path fill="rgb(246,253,247)" stroke="rgb(246,253,247)" stroke-width="1" opacity="1" d="M 1145 1210 L 1150 1225 L 1130 1235 L 1145 1210 Z " /><path fill="rgb(246,253,247)" stroke="rgb(246,253,247)" stroke-width="1" opacity="1" d="M 995 1230 Q 1011.7 1313.3 1070 1355 L 1020 1315 L 990 1255 L 995 1230 Z " /><path fill="rgb(246,253,247)" stroke="rgb(246,253,247)" stroke-width="1" opacity="1" d="M 1235 1230 L 1250 1235 L 1210 1250 L 1185 1290 L 1200 1265 L 1215 1240 L 1235 1230 Z " /><path fill="rgb(246,253,247)" stroke="rgb(246,253,247)" stroke-width="1" opacity="1" d="M 1125 1250 L 1145 1290 L 1170 1295 L 1145 1300 Q 1108.3 1288.3 1125 1250 Z " /><path fill="rgb(246,253,247)" stroke="rgb(246,253,247)" stroke-width="1" opacity="1" d="M 1325 1270 L 1330 1295 L 1320 1295 L 1325 1270 Z " /><path fill="rgb(246,253,247)" stroke="rgb(246,253,247)" stroke-width="1" opacity="1" d="M 1315 1310 L 1320 1340 L 1280 1335 L 1310 1330 L 1315 1310 Z " /><path fill="rgb(246,253,247)" stroke="rgb(246,253,247)" stroke-width="1" opacity="1" d="M 555 1330 L 635 1420 L 660 1435 L 645 1430 L 560 1355 L 555 1330 Z " /><path fill="rgb(246,253,247)" stroke="rgb(246,253,247)" stroke-width="1" opacity="1" d="M 1165 1340 L 1195 1380 L 1165 1340 Z " /><path fill="rgb(246,253,247)" stroke="rgb(246,253,247)" stroke-width="1" opacity="1" d="M 1145 1350 L 1160 1375 L 1105 1380 L 1080 1365 L 1095 1360 L 1140 1370 L 1145 1350 Z " /><path fill="rgb(246,253,247)" stroke="rgb(246,253,247)" stroke-width="1" opacity="1" d="M 1265 1360 L 1275 1380 L 1265 1360 Z " /><path fill="rgb(246,253,247)" stroke="rgb(246,253,247)" stroke-width="1" opacity="1" d="M 1215 1380 L 1260 1385 L 1215 1390 L 1215 1380 Z " /><path fill="rgb(246,253,247)" stroke="rgb(246,253,247)" stroke-width="1" opacity="1" d="M 765 1480 L 800 1495 Q 785 1550 810 1565 L 790 1555 L 790 1490 L 765 1490 L 765 1480 Z " /><path fill="rgb(246,253,247)" stroke="rgb(246,253,247)" stroke-width="1" opacity="1" d="M 815 1580 L 890 1625 L 875 1630 Q 825 1615 815 1580 Z " /><path fill="rgb(246,253,247)" stroke="rgb(246,253,247)" stroke-width="1" opacity="1" d="M 935 1640 Q 972.5 1627.5 960 1665 L 950 1665 Q 957.5 1642.5 935 1650 L 935 1640 Z " /><path fill="rgb(229,213,195)" stroke="rgb(229,213,195)" stroke-width="1" opacity="1" d="M 1545 60 L 1535 80 L 1545 60 Z " /><path fill="rgb(229,213,195)" stroke="rgb(229,213,195)" stroke-width="1" opacity="1" d="M 1505 120 L 1495 140 L 1505 120 Z " /><path fill="rgb(229,213,195)" stroke="rgb(229,213,195)" stroke-width="1" opacity="1" d="M 1485 150 L 1455 190 L 1485 150 Z " /><path fill="rgb(229,213,195)" stroke="rgb(229,213,195)" stroke-width="1" opacity="1" d="M 1435 200 L 1355 290 L 1435 200 Z " /><path fill="rgb(229,213,195)" stroke="rgb(229,213,195)" stroke-width="1" opacity="1" d="M 1335 290 L 1315 320 L 1335 290 Z " /><path fill="rgb(229,213,195)" stroke="rgb(229,213,195)" stroke-width="1" opacity="1" d="M 1295 320 L 1285 340 L 1295 320 Z " /><path fill="rgb(229,213,195)" stroke="rgb(229,213,195)" stroke-width="1" opacity="1" d="M 1265 340 L 1255 360 L 1265 340 Z " /><path fill="rgb(229,213,195)" stroke="rgb(229,213,195)" stroke-width="1" opacity="1" d="M 1225 360 L 1240 365 L 1215 380 L 1225 360 Z " /><path fill="rgb(229,213,195)" stroke="rgb(229,213,195)" stroke-width="1" opacity="1" d="M 1445 360 L 1480 365 L 1445 370 L 1445 360 Z " /><path fill="rgb(229,213,195)" stroke="rgb(229,213,195)" stroke-width="1" opacity="1" d="M 1505 360 L 1530 365 L 1505 370 L 1505 360 Z " /><path fill="rgb(229,213,195)" stroke="rgb(229,213,195)" stroke-width="1" opacity="1" d="M 1195 380 L 1175 410 L 1170 390 L 1195 380 Z " /><path fill="rgb(229,213,195)" stroke="rgb(229,213,195)" stroke-width="1" opacity="1" d="M 1375 390 L 1335 440 L 1375 390 Z " /><path fill="rgb(229,213,195)" stroke="rgb(229,213,195)" stroke-width="1" opacity="1" d="M 135 410 L 170 425 L 155 430 L 135 410 Z " /><path fill="rgb(229,213,195)" stroke="rgb(229,213,195)" stroke-width="1" opacity="1" d="M 1195 410 L 1230 435 L 1215 430 L 1195 410 Z " /><path fill="rgb(229,213,195)" stroke="rgb(229,213,195)" stroke-width="1" opacity="1" d="M 1245 440 L 1285 490 L 1245 440 Z " /><path fill="rgb(229,213,195)" stroke="rgb(229,213,195)" stroke-width="1" opacity="1" d="M 195 450 L 175 480 L 195 450 Z " /><path fill="rgb(229,213,195)" stroke="rgb(229,213,195)" stroke-width="1" opacity="1" d="M 1325 450 L 1320 465 L 1305 490 L 1310 475 L 1325 450 Z " /><path fill="rgb(229,213,195)" stroke="rgb(229,213,195)" stroke-width="1" opacity="1" d="M 1705 460 L 1655 520 L 1705 460 Z " /><path fill="rgb(229,213,195)" stroke="rgb(229,213,195)" stroke-width="1" opacity="1" d="M 155 510 L 150 525 L 135 560 L 130 545 L 155 510 Z " /><path fill="rgb(229,213,195)" stroke="rgb(229,213,195)" stroke-width="1" opacity="1" d="M 1595 540 L 1620 555 L 1605 550 L 1595 540 Z " /><path fill="rgb(229,213,195)" stroke="rgb(229,213,195)" stroke-width="1" opacity="1" d="M 125 570 L 130 585 L 105 660 L 100 625 L 125 570 Z " /><path fill="rgb(229,213,195)" stroke="rgb(229,213,195)" stroke-width="1" opacity="1" d="M 1665 580 L 1675 600 L 1665 580 Z " /><path fill="rgb(229,213,195)" stroke="rgb(229,213,195)" stroke-width="1" opacity="1" d="M 1695 610 L 1705 630 L 1695 610 Z " /><path fill="rgb(229,213,195)" stroke="rgb(229,213,195)" stroke-width="1" opacity="1" d="M 1715 640 L 1725 660 L 1715 640 Z " /><path fill="rgb(229,213,195)" stroke="rgb(229,213,195)" stroke-width="1" opacity="1" d="M 95 670 L 100 775 L 85 810 L 80 775 L 90 765 L 95 670 Z " /><path fill="rgb(229,213,195)" stroke="rgb(229,213,195)" stroke-width="1" opacity="1" d="M 265 700 L 270 875 L 280 885 L 260 875 L 265 700 Z " /><path fill="rgb(229,213,195)" stroke="rgb(229,213,195)" stroke-width="1" opacity="1" d="M 1550 710 Q 1599.6 729.9 1690 725 L 1630 730 L 1645 760 L 1680 785 L 1685 800 Q 1700 775 1715 810 Q 1737.5 802.5 1730 825 L 1760 865 L 1725 840 L 1710 855 L 1755 890 L 1805 880 L 1835 890 L 1835 880 Q 1812.5 887.5 1820 865 L 1815 850 Q 1830 885 1845 860 L 1875 840 L 1890 915 Q 1862.5 932.5 1880 995 L 1890 1025 L 1880 1035 L 1880 1635 L 1870 1645 L 1880 1665 L 1875 1690 L 1245 1690 L 1230 1675 L 1250 1670 L 1260 1645 L 1255 1630 L 1275 1630 Q 1308.3 1641.3 1300 1615 L 1325 1610 L 1360 1585 L 1375 1560 L 1385 1570 L 1420 1535 L 1470 1435 L 1470 1365 L 1415 1290 L 1400 1295 L 1420 1255 Q 1395 1240 1430 1225 L 1440 1155 Q 1417.5 1142.5 1430 1095 Q 1455 1080 1440 1025 L 1420 995 L 1420 975 L 1410 905 L 1380 830 L 1400 825 L 1380 820 L 1395 790 L 1410 845 L 1405 860 Q 1427.5 852.5 1420 875 L 1465 940 Q 1487.5 932.5 1480 955 L 1515 1000 L 1530 965 L 1530 945 L 1560 845 L 1560 765 L 1550 710 Z " /><path fill="rgb(229,213,195)" stroke="rgb(229,213,195)" stroke-width="1" opacity="1" d="M 235 730 L 205 770 L 235 730 Z " /><path fill="rgb(229,213,195)" stroke="rgb(229,213,195)" stroke-width="1" opacity="1" d="M 1705 730 L 1750 750 L 1760 775 L 1715 740 L 1705 730 Z " /><path fill="rgb(229,213,195)" stroke="rgb(229,213,195)" stroke-width="1" opacity="1" d="M 185 770 L 175 790 L 185 770 Z " /><path fill="rgb(229,213,195)" stroke="rgb(229,213,195)" stroke-width="1" opacity="1" d="M 525 780 L 565 850 Q 591.3 843.3 580 870 L 600 870 L 600 895 L 610 915 L 560 940 L 560 960 L 530 960 Q 542.5 990 505 980 L 470 1040 L 440 1055 Q 413.3 1078.3 420 1135 L 360 1245 L 340 1350 L 320 1355 L 330 1385 L 300 1475 L 310 1485 L 310 1635 L 300 1635 Q 313.5 1551.5 285 1510 L 275 1560 L 260 1485 L 270 1440 L 250 1445 L 250 1465 L 240 1485 L 250 1505 L 230 1495 L 220 1465 L 230 1465 L 235 1480 L 250 1385 L 240 1345 L 250 1305 L 230 1235 L 230 1145 L 255 1100 L 270 1135 L 270 1155 L 260 1205 L 280 1215 L 290 1155 L 270 1085 L 290 1055 L 285 1040 Q 297.5 1062.5 310 1035 L 290 985 L 300 985 L 340 1065 L 340 1085 L 355 1120 Q 377.5 1127.5 370 1105 L 400 1055 Q 375 1040 410 1025 L 430 960 Q 456.7 971.3 450 945 L 500 855 Q 475 840 510 825 Q 502.5 787.5 525 780 Z M 255 1150 L 250 1195 L 260 1195 L 255 1150 Z M 265 1220 L 260 1255 L 270 1255 L 265 1220 Z M 255 1260 L 250 1295 L 260 1295 L 255 1260 Z M 285 1270 L 280 1305 L 290 1305 L 285 1270 Z M 275 1320 L 270 1345 L 280 1345 L 275 1320 Z M 285 1400 L 280 1425 L 290 1425 L 285 1400 Z " /><path fill="rgb(229,213,195)" stroke="rgb(229,213,195)" stroke-width="1" opacity="1" d="M 145 790 L 160 795 L 115 830 L 145 790 Z " /><path fill="rgb(229,213,195)" stroke="rgb(229,213,195)" stroke-width="1" opacity="1" d="M 55 800 L 70 845 L 40 825 L 55 800 Z " /><path fill="rgb(229,213,195)" stroke="rgb(229,213,195)" stroke-width="1" opacity="1" d="M 75 820 L 100 835 L 85 840 L 75 820 Z " /><path fill="rgb(229,213,195)" stroke="rgb(229,213,195)" stroke-width="1" opacity="1" d="M 75 870 L 80 895 L 70 895 L 75 870 Z " /><path fill="rgb(229,213,195)" stroke="rgb(229,213,195)" stroke-width="1" opacity="1" d="M 35 880 L 45 920 L 55 880 L 60 915 L 35 990 L 35 880 Z " /><path fill="rgb(229,213,195)" stroke="rgb(229,213,195)" stroke-width="1" opacity="1" d="M 275 900 L 290 965 L 280 965 L 275 900 Z " /><path fill="rgb(229,213,195)" stroke="rgb(229,213,195)" stroke-width="1" opacity="1" d="M 75 920 L 80 945 L 70 945 L 75 920 Z " /><path fill="rgb(229,213,195)" stroke="rgb(229,213,195)" stroke-width="1" opacity="1" d="M 35 1080 L 40 1145 L 30 1145 L 35 1080 Z " /><path fill="rgb(229,213,195)" stroke="rgb(229,213,195)" stroke-width="1" opacity="1" d="M 45 1190 L 40 1205 Q 20 1285 60 1305 Q 30 1315 40 1365 L 50 1385 L 40 1415 L 40 1435 L 35 1540 L 30 1395 L 20 1385 L 30 1375 L 30 1205 L 45 1190 Z " /><path fill="rgb(229,213,195)" stroke="rgb(229,213,195)" stroke-width="1" opacity="1" d="M 65 1190 L 70 1260 Q 40 1272.5 50 1235 L 65 1190 Z " /><path fill="rgb(229,213,195)" stroke="rgb(229,213,195)" stroke-width="1" opacity="1" d="M 235 1390 L 240 1425 L 230 1425 L 235 1390 Z " /><path fill="rgb(229,213,195)" stroke="rgb(229,213,195)" stroke-width="1" opacity="1" d="M 55 1460 L 70 1485 L 60 1485 L 55 1460 Z " /><path fill="rgb(230,233,224)" stroke="rgb(230,233,224)" stroke-width="1" opacity="1" d="M 495 10 L 760 15 L 695 30 L 685 20 L 495 20 L 495 10 Z " /><path fill="rgb(230,233,224)" stroke="rgb(230,233,224)" stroke-width="1" opacity="1" d="M 955 10 L 965 20 L 1050 25 L 965 30 L 955 10 Z " /><path fill="rgb(230,233,224)" stroke="rgb(230,233,224)" stroke-width="1" opacity="1" d="M 45 20 L 150 25 L 40 30 L 35 50 L 30 35 L 45 20 Z " /><path fill="rgb(230,233,224)" stroke="rgb(230,233,224)" stroke-width="1" opacity="1" d="M 815 20 L 840 25 L 815 30 L 815 20 Z " /><path fill="rgb(230,233,224)" stroke="rgb(230,233,224)" stroke-width="1" opacity="1" d="M 1235 20 L 1270 25 L 1235 30 L 1235 20 Z " /><path fill="rgb(230,233,224)" stroke="rgb(230,233,224)" stroke-width="1" opacity="1" d="M 1345 20 L 1370 25 L 1345 30 L 1345 20 Z " /><path fill="rgb(230,233,224)" stroke="rgb(230,233,224)" stroke-width="1" opacity="1" d="M 1395 20 L 1450 25 L 1395 30 L 1395 20 Z " /><path fill="rgb(230,233,224)" stroke="rgb(230,233,224)" stroke-width="1" opacity="1" d="M 35 70 L 40 95 L 30 95 L 35 70 Z " /><path fill="rgb(230,233,224)" stroke="rgb(230,233,224)" stroke-width="1" opacity="1" d="M 35 130 L 40 225 L 30 225 L 35 130 Z " /><path fill="rgb(230,233,224)" stroke="rgb(230,233,224)" stroke-width="1" opacity="1" d="M 1895 800 L 1910 865 L 1900 885 L 1910 915 L 1900 915 Q 1877.6 870.1 1895 800 Z " /><path fill="rgb(230,233,224)" stroke="rgb(230,233,224)" stroke-width="1" opacity="1" d="M 635 910 L 625 930 L 610 925 L 635 910 Z " /><path fill="rgb(230,233,224)" stroke="rgb(230,233,224)" stroke-width="1" opacity="1" d="M 1895 960 L 1900 995 L 1890 995 L 1895 960 Z " /><path fill="rgb(230,233,224)" stroke="rgb(230,233,224)" stroke-width="1" opacity="1" d="M 10 990 Q 46.7 976.5 30 1035 L 15 1060 Q -12.5 1047.5 10 1035 L 10 990 Z " /><path fill="rgb(230,233,224)" stroke="rgb(230,233,224)" stroke-width="1" opacity="1" d="M 1890 1040 L 1910 1045 L 1910 1145 L 1900 1155 L 1900 1345 L 1910 1365 L 1895 1390 L 1890 1175 L 1880 1155 L 1900 1075 L 1890 1040 Z " /><path fill="rgb(230,233,224)" stroke="rgb(230,233,224)" stroke-width="1" opacity="1" d="M 15 1090 L 30 1155 L 20 1155 L 15 1090 Z " /><path fill="rgb(230,233,224)" stroke="rgb(230,233,224)" stroke-width="1" opacity="1" d="M 410 1150 Q 436.7 1138.8 430 1165 L 410 1175 L 410 1150 Z " /><path fill="rgb(230,233,224)" stroke="rgb(230,233,224)" stroke-width="1" opacity="1" d="M 5 1160 L 10 1185 L 0 1185 L 5 1160 Z " /><path fill="rgb(230,233,224)" stroke="rgb(230,233,224)" stroke-width="1" opacity="1" d="M 15 1200 L 30 1265 L 20 1265 L 15 1200 Z " /><path fill="rgb(230,233,224)" stroke="rgb(230,233,224)" stroke-width="1" opacity="1" d="M 465 1210 L 455 1230 L 465 1210 Z " /><path fill="rgb(230,233,224)" stroke="rgb(230,233,224)" stroke-width="1" opacity="1" d="M 25 1290 L 30 1380 L 10 1375 L 20 1345 L 10 1305 L 25 1290 Z " /><path fill="rgb(230,233,224)" stroke="rgb(230,233,224)" stroke-width="1" opacity="1" d="M 330 1360 L 350 1365 L 325 1430 L 320 1405 L 330 1360 Z " /><path fill="rgb(230,233,224)" stroke="rgb(230,233,224)" stroke-width="1" opacity="1" d="M 1465 1400 L 1470 1425 L 1460 1425 L 1465 1400 Z " /><path fill="rgb(230,233,224)" stroke="rgb(230,233,224)" stroke-width="1" opacity="1" d="M 315 1470 L 325 1610 Q 342.5 1582.5 360 1625 L 365 1650 L 380 1645 L 370 1690 L 330 1690 L 330 1675 L 330 1655 L 325 1620 L 315 1650 L 315 1470 Z " /><path fill="rgb(230,233,224)" stroke="rgb(230,233,224)" stroke-width="1" opacity="1" d="M 1895 1480 L 1900 1525 L 1890 1525 L 1895 1480 Z " /><path fill="rgb(230,233,224)" stroke="rgb(230,233,224)" stroke-width="1" opacity="1" d="M 335 1560 Q 365 1552.5 350 1590 L 330 1585 L 335 1560 Z " /><path fill="rgb(230,233,224)" stroke="rgb(230,233,224)" stroke-width="1" opacity="1" d="M 1880 1560 Q 1916.7 1548 1900 1600 Q 1863.3 1612 1880 1560 Z " /><path fill="rgb(230,233,224)" stroke="rgb(230,233,224)" stroke-width="1" opacity="1" d="M 395 1600 L 410 1665 L 400 1665 L 395 1600 Z " /><path fill="rgb(230,233,224)" stroke="rgb(230,233,224)" stroke-width="1" opacity="1" d="M 1885 1620 Q 1910 1630 1900 1675 L 1880 1685 L 1890 1665 L 1885 1620 Z " /></svg>